<?xml version="1.0" encoding="UTF-8" standalone="no"?>
<!-- Created with Inkscape (http://www.inkscape.org/) -->

<svg
   xmlns:dc="http://purl.org/dc/elements/1.1/"
   xmlns:cc="http://creativecommons.org/ns#"
   xmlns:rdf="http://www.w3.org/1999/02/22-rdf-syntax-ns#"
   xmlns:svg="http://www.w3.org/2000/svg"
   xmlns="http://www.w3.org/2000/svg"
   xmlns:sodipodi="http://sodipodi.sourceforge.net/DTD/sodipodi-0.dtd"
   xmlns:inkscape="http://www.inkscape.org/namespaces/inkscape"
   width="82.936684"
   height="117.05909"
   id="svg3047"
   version="1.1"
   inkscape:version="0.92.1 r15371"
   sodipodi:docname="relay.svg"
   viewBox="0 0 77.753143 109.7429">
  <defs
     id="defs3049" />
  <sodipodi:namedview
     id="base"
     pagecolor="#ffffff"
     bordercolor="#666666"
     borderopacity="1.0"
     inkscape:pageopacity="0.0"
     inkscape:pageshadow="2"
     inkscape:zoom="7.9195959"
     inkscape:cx="19.685924"
     inkscape:cy="47.781981"
     inkscape:document-units="px"
     inkscape:current-layer="g4737"
     showgrid="false"
     fit-margin-top="10"
     fit-margin-left="10"
     fit-margin-right="10"
     fit-margin-bottom="10"
     inkscape:window-width="1366"
     inkscape:window-height="715"
     inkscape:window-x="-8"
     inkscape:window-y="-8"
     inkscape:window-maximized="1"
     inkscape:snap-global="false" />
  <metadata
     id="metadata3052">
    <rdf:RDF>
      <cc:Work
         rdf:about="">
        <dc:format>image/svg+xml</dc:format>
        <dc:type
           rdf:resource="http://purl.org/dc/dcmitype/StillImage" />
        <dc:title />
      </cc:Work>
    </rdf:RDF>
  </metadata>
  <g
     inkscape:label="Layer 1"
     inkscape:groupmode="layer"
     id="layer1"
     transform="translate(-319.46963,-488.93165)">
    <g
       style="display:inline"
       id="g4737"
       transform="translate(-1371.4771,157.03214)">
      <g
         transform="matrix(0,2,-2,0,2060.4063,4.093777)"
         id="g4007"
         style="display:inline;fill:#000000;stroke:#ff00ff">
        <path
           style="color:#000000;font-style:normal;font-variant:normal;font-weight:normal;font-stretch:normal;font-size:medium;line-height:normal;font-family:sans-serif;font-variant-ligatures:normal;font-variant-position:normal;font-variant-caps:normal;font-variant-numeric:normal;font-variant-alternates:normal;font-feature-settings:normal;text-indent:0;text-align:start;text-decoration:none;text-decoration-line:none;text-decoration-style:solid;text-decoration-color:#000000;letter-spacing:normal;word-spacing:normal;text-transform:none;writing-mode:lr-tb;direction:ltr;text-orientation:mixed;dominant-baseline:auto;baseline-shift:baseline;text-anchor:start;white-space:normal;shape-padding:0;clip-rule:nonzero;display:inline;overflow:visible;visibility:visible;opacity:1;isolation:auto;mix-blend-mode:normal;color-interpolation:sRGB;color-interpolation-filters:linearRGB;solid-color:#000000;solid-opacity:1;vector-effect:none;fill:#000000;fill-opacity:1;fill-rule:nonzero;stroke:none;stroke-width:1.77165353;stroke-linecap:square;stroke-linejoin:round;stroke-miterlimit:4;stroke-dasharray:none;stroke-dashoffset:0;stroke-opacity:1;color-rendering:auto;image-rendering:auto;shape-rendering:auto;text-rendering:auto;enable-background:accumulate"
           d="m 191.3418,171.73242 c -1.22928,0 -2.39342,0.73539 -3.17578,1.95703 -0.15461,0.24141 -0.23313,0.58942 -0.36133,0.86914 -0.12626,-0.26917 -0.20239,-0.60672 -0.35352,-0.83984 -0.78684,-1.21367 -1.95299,-1.94199 -3.18164,-1.93945 -1.22865,0.003 -2.39424,0.73561 -3.18164,1.95312 -0.16105,0.24902 -0.24406,0.60651 -0.37695,0.89649 -0.13341,-0.29031 -0.21731,-0.64924 -0.37891,-0.89844 -0.78912,-1.21693 -1.95588,-1.94727 -3.18555,-1.94727 -1.22966,0 -2.39519,0.73164 -3.18164,1.94922 -0.66722,1.033 -1.03403,2.49544 -1.15039,4.22656 h -2.73633 -0.88476 v 1.77149 h 0.88476 3.52344 a 0.88591535,0.88591535 0 0 0 0.88477,-0.88672 c 0,-1.93111 0.42384,-3.30978 0.96679,-4.15039 0.54296,-0.84062 1.14874,-1.13867 1.69336,-1.13867 0.54463,0 1.15369,0.29935 1.69922,1.14062 0.54553,0.84127 0.97164,2.21928 0.97657,4.15039 a 0.88591535,0.88591535 0 0 0 0.58789,0.81836 0.88591535,0.88591535 0 0 0 0.0762,0.0254 0.88591535,0.88591535 0 0 0 0.01,0.002 0.88591535,0.88591535 0 0 0 0.0762,0.0156 0.88591535,0.88591535 0 0 0 0.01,0.002 0.88591535,0.88591535 0 0 0 0.0781,0.008 0.88591535,0.88591535 0 0 0 0.94531,-0.8711 c 0,-0.002 -1e-5,-0.004 0,-0.006 0.003,-1.92759 0.42704,-3.30585 0.9707,-4.14648 0.5443,-0.84161 1.15296,-1.14145 1.69727,-1.14258 0.5443,-0.001 1.14921,0.29456 1.6914,1.13086 0.54219,0.8363 0.96488,2.20946 0.96485,4.13281 0,7.3e-4 0,0.001 0,0.002 a 0.88591535,0.88591535 0 0 0 1.77148,-0.002 c 0,-7.2e-4 0,-0.001 0,-0.002 -0.005,-1.93888 0.41465,-3.3241 0.95508,-4.16797 0.54043,-0.84386 1.1458,-1.14062 1.68555,-1.14062 0.53975,0 1.14447,0.29805 1.6875,1.14257 0.54302,0.84453 0.96676,2.2291 0.96679,4.16797 1e-5,7.3e-4 0,0.001 0,0.002 a 0.88591535,0.88591535 0 0 0 1.77149,-0.002 c 0,-7.2e-4 0,-0.001 0,-0.002 -0.005,-1.92334 0.41369,-3.29513 0.95312,-4.13086 0.53944,-0.83573 1.14304,-1.13198 1.68555,-1.13086 0.54251,0.001 1.15123,0.30089 1.69531,1.14258 0.54408,0.84169 0.96824,2.22123 0.97071,4.15234 a 0.88591535,0.88591535 0 0 0 1.77148,-0.002 c -0.002,-1.93111 0.41937,-3.31006 0.96094,-4.15039 0.54156,-0.84033 1.14574,-1.13867 1.68945,-1.13867 0.54371,0 1.1538,0.29931 1.69922,1.14062 0.54542,0.84132 0.97164,2.21928 0.97656,4.15039 a 0.88591535,0.88591535 0 0 0 0.88477,0.88477 h 3.54297 0.88672 v -1.77149 h -0.88672 -2.75782 c -0.12056,-1.73201 -0.49058,-3.19569 -1.16015,-4.22851 -0.78891,-1.21688 -1.95628,-1.94727 -3.18555,-1.94727 -1.22926,0 -2.39481,0.73135 -3.17969,1.94922 -0.1548,0.24021 -0.23281,0.58694 -0.36133,0.86524 -0.12919,-0.27852 -0.20791,-0.62489 -0.36328,-0.86524 -0.78696,-1.21742 -1.95184,-1.95058 -3.17968,-1.95312 -1.22785,-0.003 -2.39399,0.72717 -3.17774,1.9414 -0.14988,0.23222 -0.22447,0.56801 -0.34961,0.83594 -0.12889,-0.27968 -0.20811,-0.62782 -0.36328,-0.86914 -0.78509,-1.22098 -1.94846,-1.95508 -3.17773,-1.95508 z"
           id="path4009"
           inkscape:connector-curvature="0" />
        <path
           style="color:#000000;font-style:normal;font-variant:normal;font-weight:normal;font-stretch:normal;font-size:medium;line-height:normal;font-family:sans-serif;font-variant-ligatures:normal;font-variant-position:normal;font-variant-caps:normal;font-variant-numeric:normal;font-variant-alternates:normal;font-feature-settings:normal;text-indent:0;text-align:start;text-decoration:none;text-decoration-line:none;text-decoration-style:solid;text-decoration-color:#000000;letter-spacing:normal;word-spacing:normal;text-transform:none;writing-mode:lr-tb;direction:ltr;text-orientation:mixed;dominant-baseline:auto;baseline-shift:baseline;text-anchor:start;white-space:normal;shape-padding:0;clip-rule:nonzero;display:inline;overflow:visible;visibility:visible;opacity:1;isolation:auto;mix-blend-mode:normal;color-interpolation:sRGB;color-interpolation-filters:linearRGB;solid-color:#000000;solid-opacity:1;vector-effect:none;fill:#000000;fill-opacity:1;fill-rule:nonzero;stroke:none;stroke-width:2.60000086;stroke-linecap:butt;stroke-linejoin:miter;stroke-miterlimit:4;stroke-dasharray:none;stroke-dashoffset:0;stroke-opacity:1;color-rendering:auto;image-rendering:auto;shape-rendering:auto;text-rendering:auto;enable-background:accumulate"
           d="m 173.62891,166.88867 -0.008,2.59961 35.42969,0.10938 0.008,-2.59961 z"
           id="path4011"
           inkscape:connector-curvature="0" />
      </g>
      <g
         style="stroke-width:13.31956863;stroke-miterlimit:4;stroke-dasharray:none;fill:#000000;stroke:#ff00ff"
         id="layer1-0"
         transform="matrix(0,0.26948713,-0.26948713,0,1759.101,343.12612)">
        <g
           style="stroke-width:13.31956863;stroke-miterlimit:4;stroke-dasharray:none;fill:#000000;stroke:#ff00ff"
           id="g3070"
           transform="translate(-9.449579,-154.724)">
          <path
             style="color:#000000;font-style:normal;font-variant:normal;font-weight:normal;font-stretch:normal;font-size:medium;line-height:normal;font-family:sans-serif;font-variant-ligatures:normal;font-variant-position:normal;font-variant-caps:normal;font-variant-numeric:normal;font-variant-alternates:normal;font-feature-settings:normal;text-indent:0;text-align:start;text-decoration:none;text-decoration-line:none;text-decoration-style:solid;text-decoration-color:#000000;letter-spacing:normal;word-spacing:normal;text-transform:none;writing-mode:lr-tb;direction:ltr;text-orientation:mixed;dominant-baseline:auto;baseline-shift:baseline;text-anchor:start;white-space:normal;shape-padding:0;clip-rule:nonzero;display:inline;overflow:visible;visibility:visible;opacity:1;isolation:auto;mix-blend-mode:normal;color-interpolation:sRGB;color-interpolation-filters:linearRGB;solid-color:#000000;solid-opacity:1;vector-effect:none;fill:#000000;fill-opacity:1;fill-rule:evenodd;stroke:none;stroke-width:13.1483345;stroke-linecap:butt;stroke-linejoin:miter;stroke-miterlimit:4;stroke-dasharray:none;stroke-dashoffset:0;stroke-opacity:1;color-rendering:auto;image-rendering:auto;shape-rendering:auto;text-rendering:auto;enable-background:accumulate"
             d="m 130.46003,194.95089 c -14.12039,0 -25.70861,11.5882 -25.70861,25.7086 0,14.1204 11.58822,25.70751 25.70861,25.70751 14.12039,0 25.70751,-11.58711 25.70751,-25.70751 0,-14.1204 -11.58712,-25.7086 -25.70751,-25.7086 z m 0,13.1486 c 7.01451,0 12.55891,5.54548 12.55891,12.56 0,7.01452 -5.5444,12.55892 -12.55891,12.55892 -7.01452,0 -12.56001,-5.5444 -12.56001,-12.55892 0,-7.01452 5.54549,-12.56 12.56001,-12.56 z"
             id="path1307"
             inkscape:connector-curvature="0" />
          <path
             style="color:#000000;font-style:normal;font-variant:normal;font-weight:normal;font-stretch:normal;font-size:medium;line-height:normal;font-family:sans-serif;font-variant-ligatures:normal;font-variant-position:normal;font-variant-caps:normal;font-variant-numeric:normal;font-variant-alternates:normal;font-feature-settings:normal;text-indent:0;text-align:start;text-decoration:none;text-decoration-line:none;text-decoration-style:solid;text-decoration-color:#000000;letter-spacing:normal;word-spacing:normal;text-transform:none;writing-mode:lr-tb;direction:ltr;text-orientation:mixed;dominant-baseline:auto;baseline-shift:baseline;text-anchor:start;white-space:normal;shape-padding:0;clip-rule:nonzero;display:inline;overflow:visible;visibility:visible;opacity:1;isolation:auto;mix-blend-mode:normal;color-interpolation:sRGB;color-interpolation-filters:linearRGB;solid-color:#000000;solid-opacity:1;vector-effect:none;fill:#000000;fill-opacity:1;fill-rule:nonzero;stroke:none;stroke-width:13.14833546;stroke-linecap:butt;stroke-linejoin:round;stroke-miterlimit:4;stroke-dasharray:none;stroke-dashoffset:0;stroke-opacity:1;marker:none;color-rendering:auto;image-rendering:auto;shape-rendering:auto;text-rendering:auto;enable-background:accumulate"
             d="m 238.21289,214.08594 v 13.14648 h 93.125 v -13.14648 z"
             id="path2184"
             inkscape:connector-curvature="0" />
          <path
             style="color:#000000;font-style:normal;font-variant:normal;font-weight:normal;font-stretch:normal;font-size:medium;line-height:normal;font-family:sans-serif;font-variant-ligatures:normal;font-variant-position:normal;font-variant-caps:normal;font-variant-numeric:normal;font-variant-alternates:normal;font-feature-settings:normal;text-indent:0;text-align:start;text-decoration:none;text-decoration-line:none;text-decoration-style:solid;text-decoration-color:#000000;letter-spacing:normal;word-spacing:normal;text-transform:none;writing-mode:lr-tb;direction:ltr;text-orientation:mixed;dominant-baseline:auto;baseline-shift:baseline;text-anchor:start;white-space:normal;shape-padding:0;clip-rule:nonzero;display:inline;overflow:visible;visibility:visible;opacity:1;isolation:auto;mix-blend-mode:normal;color-interpolation:sRGB;color-interpolation-filters:linearRGB;solid-color:#000000;solid-opacity:1;vector-effect:none;fill:#000000;fill-opacity:1;fill-rule:nonzero;stroke:none;stroke-width:13.14833546;stroke-linecap:butt;stroke-linejoin:round;stroke-miterlimit:4;stroke-dasharray:none;stroke-dashoffset:0;stroke-opacity:1;marker:none;color-rendering:auto;image-rendering:auto;shape-rendering:auto;text-rendering:auto;enable-background:accumulate"
             d="m 11.472656,214.08594 v 13.14648 h 97.076174 v -13.14648 z"
             id="path3059"
             inkscape:connector-curvature="0" />
          <path
             style="color:#000000;font-style:normal;font-variant:normal;font-weight:normal;font-stretch:normal;font-size:medium;line-height:normal;font-family:sans-serif;font-variant-ligatures:normal;font-variant-position:normal;font-variant-caps:normal;font-variant-numeric:normal;font-variant-alternates:normal;font-feature-settings:normal;text-indent:0;text-align:start;text-decoration:none;text-decoration-line:none;text-decoration-style:solid;text-decoration-color:#000000;letter-spacing:normal;word-spacing:normal;text-transform:none;writing-mode:lr-tb;direction:ltr;text-orientation:mixed;dominant-baseline:auto;baseline-shift:baseline;text-anchor:start;white-space:normal;shape-padding:0;clip-rule:nonzero;display:inline;overflow:visible;visibility:visible;opacity:1;isolation:auto;mix-blend-mode:normal;color-interpolation:sRGB;color-interpolation-filters:linearRGB;solid-color:#000000;solid-opacity:1;vector-effect:none;fill:#000000;fill-opacity:1;fill-rule:nonzero;stroke:none;stroke-width:13.14833546;stroke-linecap:butt;stroke-linejoin:round;stroke-miterlimit:4;stroke-dasharray:none;stroke-dashoffset:0;stroke-opacity:1;marker:none;color-rendering:auto;image-rendering:auto;shape-rendering:auto;text-rendering:auto;enable-background:accumulate"
             d="m 133.96484,157.28516 -7.20117,11.00195 74.214,47.29823 7.20117,-11 z"
             id="path3061"
             inkscape:connector-curvature="0"
             sodipodi:nodetypes="ccccc" />
          <path
             style="color:#000000;font-style:normal;font-variant:normal;font-weight:normal;font-stretch:normal;font-size:medium;line-height:normal;font-family:sans-serif;font-variant-ligatures:normal;font-variant-position:normal;font-variant-caps:normal;font-variant-numeric:normal;font-variant-alternates:normal;font-feature-settings:normal;text-indent:0;text-align:start;text-decoration:none;text-decoration-line:none;text-decoration-style:solid;text-decoration-color:#000000;letter-spacing:normal;word-spacing:normal;text-transform:none;writing-mode:lr-tb;direction:ltr;text-orientation:mixed;dominant-baseline:auto;baseline-shift:baseline;text-anchor:start;white-space:normal;shape-padding:0;clip-rule:nonzero;display:inline;overflow:visible;visibility:visible;opacity:1;isolation:auto;mix-blend-mode:normal;color-interpolation:sRGB;color-interpolation-filters:linearRGB;solid-color:#000000;solid-opacity:1;vector-effect:none;fill:#000000;fill-opacity:1;fill-rule:evenodd;stroke:none;stroke-width:13.1483345;stroke-linecap:butt;stroke-linejoin:miter;stroke-miterlimit:4;stroke-dasharray:none;stroke-dashoffset:0;stroke-opacity:1;color-rendering:auto;image-rendering:auto;shape-rendering:auto;text-rendering:auto;enable-background:accumulate"
             d="m 218.72129,194.95089 c -14.12039,0 -25.70861,11.5882 -25.70861,25.7086 0,14.1204 11.58822,25.70751 25.70861,25.70751 14.12039,0 25.70751,-11.58711 25.70751,-25.70751 0,-14.1204 -11.58712,-25.7086 -25.70751,-25.7086 z m 0,13.1486 c 7.01451,0 12.55891,5.54548 12.55891,12.56 0,7.01452 -5.5444,12.55892 -12.55891,12.55892 -7.01452,0 -12.56001,-5.5444 -12.56001,-12.55892 0,-7.01452 5.54549,-12.56 12.56001,-12.56 z"
             id="path2182"
             inkscape:connector-curvature="0" />
        </g>
      </g>
    </g>
  </g>
</svg>
